<mxfile host="app.diagrams.net" modified="2023-10-17T20:45:38.110Z" agent="Mozilla/5.0 (Macintosh; Intel Mac OS X 10_15_7) AppleWebKit/537.36 (KHTML, like Gecko) Chrome/118.0.0.0 Safari/537.36" etag="ydX15WFBWx41Oou-m8Gt" version="21.6.8" type="github">
  <diagram name="PÃ¡gina-1" id="9Pa1qUWsR1Ma1n8n0Sek">
    <mxGraphModel dx="1638" dy="1094" grid="1" gridSize="10" guides="1" tooltips="1" connect="1" arrows="1" fold="1" page="1" pageScale="1" pageWidth="1169" pageHeight="827" math="0" shadow="0">
      <root>
        <mxCell id="0" />
        <mxCell id="1" parent="0" />
        <mxCell id="kvStbZrHPBNy4K6J8htC-3" style="edgeStyle=orthogonalEdgeStyle;rounded=0;orthogonalLoop=1;jettySize=auto;html=1;" edge="1" parent="1" source="kvStbZrHPBNy4K6J8htC-1" target="kvStbZrHPBNy4K6J8htC-2">
          <mxGeometry relative="1" as="geometry" />
        </mxCell>
        <mxCell id="kvStbZrHPBNy4K6J8htC-11" style="edgeStyle=orthogonalEdgeStyle;rounded=0;orthogonalLoop=1;jettySize=auto;html=1;" edge="1" parent="1" source="kvStbZrHPBNy4K6J8htC-1" target="kvStbZrHPBNy4K6J8htC-10">
          <mxGeometry relative="1" as="geometry" />
        </mxCell>
        <mxCell id="kvStbZrHPBNy4K6J8htC-1" value="Lambda" style="sketch=0;points=[[0,0,0],[0.25,0,0],[0.5,0,0],[0.75,0,0],[1,0,0],[0,1,0],[0.25,1,0],[0.5,1,0],[0.75,1,0],[1,1,0],[0,0.25,0],[0,0.5,0],[0,0.75,0],[1,0.25,0],[1,0.5,0],[1,0.75,0]];outlineConnect=0;fontColor=#232F3E;gradientColor=#F78E04;gradientDirection=north;fillColor=#D05C17;strokeColor=#ffffff;dashed=0;verticalLabelPosition=bottom;verticalAlign=top;align=center;html=1;fontSize=12;fontStyle=0;aspect=fixed;shape=mxgraph.aws4.resourceIcon;resIcon=mxgraph.aws4.lambda;" vertex="1" parent="1">
          <mxGeometry x="298.5" y="425" width="78" height="78" as="geometry" />
        </mxCell>
        <mxCell id="kvStbZrHPBNy4K6J8htC-16" style="edgeStyle=orthogonalEdgeStyle;rounded=0;orthogonalLoop=1;jettySize=auto;html=1;" edge="1" parent="1" source="kvStbZrHPBNy4K6J8htC-2" target="kvStbZrHPBNy4K6J8htC-15">
          <mxGeometry relative="1" as="geometry" />
        </mxCell>
        <mxCell id="kvStbZrHPBNy4K6J8htC-2" value="Dynamo DB" style="sketch=0;points=[[0,0,0],[0.25,0,0],[0.5,0,0],[0.75,0,0],[1,0,0],[0,1,0],[0.25,1,0],[0.5,1,0],[0.75,1,0],[1,1,0],[0,0.25,0],[0,0.5,0],[0,0.75,0],[1,0.25,0],[1,0.5,0],[1,0.75,0]];outlineConnect=0;fontColor=#232F3E;gradientColor=#4D72F3;gradientDirection=north;fillColor=#3334B9;strokeColor=#ffffff;dashed=0;verticalLabelPosition=bottom;verticalAlign=top;align=center;html=1;fontSize=12;fontStyle=0;aspect=fixed;shape=mxgraph.aws4.resourceIcon;resIcon=mxgraph.aws4.dynamodb;" vertex="1" parent="1">
          <mxGeometry x="300.5" y="592" width="74" height="74" as="geometry" />
        </mxCell>
        <mxCell id="kvStbZrHPBNy4K6J8htC-25" style="edgeStyle=orthogonalEdgeStyle;rounded=0;orthogonalLoop=1;jettySize=auto;html=1;" edge="1" parent="1" source="kvStbZrHPBNy4K6J8htC-4" target="kvStbZrHPBNy4K6J8htC-1">
          <mxGeometry relative="1" as="geometry" />
        </mxCell>
        <mxCell id="kvStbZrHPBNy4K6J8htC-4" value="KMS" style="outlineConnect=0;dashed=0;verticalLabelPosition=bottom;verticalAlign=top;align=center;html=1;shape=mxgraph.aws3.kms;fillColor=#759C3E;gradientColor=none;" vertex="1" parent="1">
          <mxGeometry x="502.5" y="231" width="76.5" height="93" as="geometry" />
        </mxCell>
        <mxCell id="kvStbZrHPBNy4K6J8htC-19" style="edgeStyle=orthogonalEdgeStyle;rounded=0;orthogonalLoop=1;jettySize=auto;html=1;" edge="1" parent="1" source="kvStbZrHPBNy4K6J8htC-9" target="kvStbZrHPBNy4K6J8htC-1">
          <mxGeometry relative="1" as="geometry" />
        </mxCell>
        <mxCell id="kvStbZrHPBNy4K6J8htC-9" value="Open Finance" style="shape=image;verticalLabelPosition=bottom;verticalAlign=top;imageAspect=0;image=https://resolucao.openfinancebrasil.org.br/static/media/simbolo_open_finance.8954bc1f.png" vertex="1" parent="1">
          <mxGeometry x="20" y="230" width="100" height="95" as="geometry" />
        </mxCell>
        <mxCell id="kvStbZrHPBNy4K6J8htC-17" style="edgeStyle=orthogonalEdgeStyle;rounded=0;orthogonalLoop=1;jettySize=auto;html=1;" edge="1" parent="1" source="kvStbZrHPBNy4K6J8htC-10" target="kvStbZrHPBNy4K6J8htC-14">
          <mxGeometry relative="1" as="geometry" />
        </mxCell>
        <mxCell id="kvStbZrHPBNy4K6J8htC-10" value="API Gateway" style="outlineConnect=0;dashed=0;verticalLabelPosition=bottom;verticalAlign=top;align=center;html=1;shape=mxgraph.aws3.api_gateway;fillColor=#D9A741;gradientColor=none;" vertex="1" parent="1">
          <mxGeometry x="480" y="417.5" width="76.5" height="93" as="geometry" />
        </mxCell>
        <mxCell id="kvStbZrHPBNy4K6J8htC-27" style="edgeStyle=orthogonalEdgeStyle;rounded=0;orthogonalLoop=1;jettySize=auto;html=1;entryX=0;entryY=0.5;entryDx=0;entryDy=0;entryPerimeter=0;" edge="1" parent="1" source="kvStbZrHPBNy4K6J8htC-14" target="kvStbZrHPBNy4K6J8htC-26">
          <mxGeometry relative="1" as="geometry" />
        </mxCell>
        <mxCell id="kvStbZrHPBNy4K6J8htC-14" value="api/v1/auth&lt;br&gt;api/v1/consent&lt;br&gt;api/v1/link&lt;br&gt;" style="text;align=left;verticalAlign=middle;spacingLeft=4;spacingRight=4;overflow=hidden;points=[[0,0.5],[1,0.5]];portConstraint=eastwest;rotatable=0;whiteSpace=wrap;html=1;strokeColor=default;" vertex="1" parent="1">
          <mxGeometry x="620" y="416" width="110" height="94.5" as="geometry" />
        </mxCell>
        <mxCell id="kvStbZrHPBNy4K6J8htC-15" value="dcr&lt;br&gt;consent" style="text;strokeColor=none;fillColor=none;align=left;verticalAlign=middle;spacingLeft=4;spacingRight=4;overflow=hidden;points=[[0,0.5],[1,0.5]];portConstraint=eastwest;rotatable=0;whiteSpace=wrap;html=1;" vertex="1" parent="1">
          <mxGeometry x="422.5" y="594" width="80" height="70" as="geometry" />
        </mxCell>
        <mxCell id="kvStbZrHPBNy4K6J8htC-23" style="edgeStyle=orthogonalEdgeStyle;rounded=0;orthogonalLoop=1;jettySize=auto;html=1;" edge="1" parent="1" source="kvStbZrHPBNy4K6J8htC-21" target="kvStbZrHPBNy4K6J8htC-1">
          <mxGeometry relative="1" as="geometry" />
        </mxCell>
        <mxCell id="kvStbZrHPBNy4K6J8htC-21" value="MockBank&lt;br&gt;Radian" style="shape=image;html=1;verticalAlign=top;verticalLabelPosition=bottom;labelBackgroundColor=#ffffff;imageAspect=0;aspect=fixed;image=https://cdn4.iconfinder.com/data/icons/48-bubbles/48/04.Bank-128.png" vertex="1" parent="1">
          <mxGeometry x="30" y="360" width="80" height="80" as="geometry" />
        </mxCell>
        <mxCell id="kvStbZrHPBNy4K6J8htC-24" style="edgeStyle=orthogonalEdgeStyle;rounded=0;orthogonalLoop=1;jettySize=auto;html=1;entryX=0;entryY=0.5;entryDx=0;entryDy=0;entryPerimeter=0;" edge="1" parent="1" source="kvStbZrHPBNy4K6J8htC-22" target="kvStbZrHPBNy4K6J8htC-1">
          <mxGeometry relative="1" as="geometry" />
        </mxCell>
        <mxCell id="kvStbZrHPBNy4K6J8htC-22" value="TestBank&lt;br&gt;Tecban" style="shape=image;html=1;verticalAlign=top;verticalLabelPosition=bottom;labelBackgroundColor=#ffffff;imageAspect=0;aspect=fixed;image=https://cdn4.iconfinder.com/data/icons/48-bubbles/48/04.Bank-128.png" vertex="1" parent="1">
          <mxGeometry x="30" y="492" width="80" height="80" as="geometry" />
        </mxCell>
        <mxCell id="kvStbZrHPBNy4K6J8htC-26" value="CloudFront" style="outlineConnect=0;dashed=0;verticalLabelPosition=bottom;verticalAlign=top;align=center;html=1;shape=mxgraph.aws3.cloudfront;fillColor=#F58536;gradientColor=none;" vertex="1" parent="1">
          <mxGeometry x="790" y="416" width="76.5" height="93" as="geometry" />
        </mxCell>
        <mxCell id="kvStbZrHPBNy4K6J8htC-28" value="Software Statement&lt;br&gt;DCR Informations" style="text;align=left;verticalAlign=middle;spacingLeft=4;spacingRight=4;overflow=hidden;points=[[0,0.5],[1,0.5]];portConstraint=eastwest;rotatable=0;whiteSpace=wrap;html=1;strokeColor=default;" vertex="1" parent="1">
          <mxGeometry x="120" y="180" width="140" height="94.5" as="geometry" />
        </mxCell>
      </root>
    </mxGraphModel>
  </diagram>
</mxfile>
